DBRep_DrawableShape

CASCADE Topology V2, (c) Matra-Datavision
Locations 0
Curve2ds 14
1 0 -1.5824001935525225 1 0 
7 0 0  3 25 23  1.2217304763960299 0  1.2217263397489186 0.016280110050415762  1.2239180854654446 0.048840375100547673  1.2337313306655873 0.096801213753665794  1.2500191093260935 0.14300246241906933  1.2726486479353321 0.18656527056591293  1.3014015818239826 0.22661845360998925  1.335933306246992 0.2623115142963518  1.3757386370547871 0.29283568252693187  1.420121497333142 0.31745307267962919  1.4681809545508275 0.33553221695299595  1.5188219999998203 0.34658596344932852  1.5707963267948963 0.35030579387363581  1.6227706535899731 0.34658596344932863  1.6734116990389651 0.33553221695299584  1.7214711562566509 0.31745307267962924  1.7658540165350061 0.29283568252693182  1.8056593473428011 0.26231151429635174  1.8401910717658108 0.22661845360998939  1.8689440056544613 0.18656527056591299  1.8915735442636996 0.14300246241906933  1.9078613229242056 0.096801213753665863  1.917674568124349 0.048840375100547659  1.9198663138408745 0.01628011005041578  1.9198621771937634 4.1885387376769437e-17 
 0 4 0.14279966607226333 1 0.28559933214452665 1 0.42839899821678995 1 0.5711986642890533 1 0.71399833036131666 1 0.8567979964335799 1 0.99959766250584325 1 1.1423973285781066 1 1.2851969946503699 1 1.4279966607226333 1 1.5707963267948966 1 1.7135959928671598 1 1.8563956589394233 1 1.9991953250116865 1 2.14199499108395 1 2.2847946571562132 1 2.4275943232284765 1 2.5703939893007397 1 2.7131936553730034 1 2.8559933214452666 1 2.9987929875175299 1 3.1415926535897931 4
1 3.1415926535897931 0 0 1 
1 3.1415926535897931 0 0 1 
1 0 0 1 0 
1 0 2.2737367544323216e-16 0 1 
1 6.2831853071795862 2.2737367544323216e-16 0 1 
1 1.5707963267948966 0 -1 0 
1 1.5707963267948966 0 -1 0 
1 -1.5707963267948968 -3.7696848639092445e-16 1 1.1999279599797101e-16 
1 -1.5707963267948968 -3.7696848639092445e-16 1 1.1999279599797101e-16 
7 0 0  3 25 23  1.9198621771937634 4.1885387376769437e-17  1.9198663138408745 -0.016280110050415717  1.9176745681243483 -0.048840375100547576  1.9078613229242063 -0.096801213753665738  1.8915735442636996 -0.14300246241906936  1.8689440056544611 -0.18656527056591291  1.840191071765811 -0.22661845360998928  1.8056593473428009 -0.26231151429635174  1.7658540165350061 -0.29283568252693187  1.7214711562566514 -0.31745307267962936  1.673411699038966 -0.3355322169529959  1.6227706535899731 -0.34658596344932852  1.5707963267948966 -0.35030579387363581  1.5188219999998196 -0.34658596344932852  1.468180954550828 -0.3355322169529959  1.4201214973331422 -0.31745307267962936  1.3757386370547868 -0.29283568252693176  1.3359333062469925 -0.26231151429635202  1.301401581823983 -0.2266184536099892  1.2726486479353316 -0.18656527056591299  1.2500191093260937 -0.14300246241906941  1.2337313306655875 -0.096801213753665849  1.2239180854654446 -0.0488403751005477  1.2217263397489186 -0.016280110050415832  1.2217304763960299 -8.3770774753539946e-17 
 3.1415926535897931 4 3.2843923196620564 1 3.4271919857343196 1 3.5699916518065828 1 3.7127913178788465 1 3.8555909839511098 1 3.998390650023373 1 4.1411903160956367 1 4.2839899821678999 1 4.4267896482401632 1 4.5695893143124264 1 4.7123889803846897 1 4.8551886464569529 1 4.9979883125292162 1 5.1407879786014794 1 5.2835876446737426 1 5.4263873107460068 1 5.5691869768182691 1 5.7119866428905333 1 5.8547863089627965 1 5.9975859750350597 1 6.140385641107323 1 6.2831853071795862 4
1 0 -1.5824001935525225 1 0 
1 0 0 1 0 
Curves 8
2 1.4095389311788631 -1.7261873403417757e-16 -9.8427577491677922e-15 -1 1.2246467991473527e-16 6.9829626776862667e-15 1.2246467991473527e-16 1 -8.5516628917939137e-31 -6.9829626776862667e-15 0 -1 0.51303021498850454
1 0.86832619018145663 -2.0000000000000009 -6.3084187379240899e-15 -0.34202014332567282 -0.93969262078590687 2.2732347398372966e-15 
2 0.86832619018145685 -1.0633928894215372e-16 -6.0634893780946212e-15 -1 1.2246467991473527e-16 6.9829626776862667e-15 1.2246467991473527e-16 1 -8.6876259991386026e-31 -6.9829626776862667e-15 -1.3596310734468891e-32 -1 2.0000000000000009
1 0.86832619018145707 2.0000000000000009 -6.063489378094622e-15 -0.34202014332567271 0.93969262078590698 2.3883138958600797e-15 
2 0 0 0 6.9829626776862667e-15 -0 1 1 0 -6.9829626776862667e-15 0 1 0 1.5000000000000007
2 0 0 0 -6.9829626776862667e-15 1.2246467991473532e-16 -1 -1 0 6.9829626776862667e-15 8.5516628917939172e-31 1 1.2246467991473532e-16 1.5000000000000007
2 1.4095389311788631 -1.7261873403417757e-16 -9.8427577491677922e-15 -1 1.2246467991473527e-16 6.9829626776862667e-15 1.2246467991473527e-16 1 -8.5516628917939137e-31 -6.9829626776862667e-15 0 -1 0.51303021498850454
2 0.86832619018145685 -1.0633928894215372e-16 -6.0634893780946212e-15 -1 1.2246467991473527e-16 6.9829626776862667e-15 1.2246467991473527e-16 1 -8.6876259991386026e-31 -6.9829626776862667e-15 -1.3596310734468891e-32 -1 2.0000000000000009
Polygon3D 0
PolygonOnTriangulations 0
Surfaces 5
3 0.86832619018145685 -1.0633928894215372e-16 -6.0634893780946212e-15 -1 1.2246467991473527e-16 6.9829626776862667e-15 1.2246467991473527e-16 1 -8.6876259991386026e-31 -6.9829626776862667e-15 -1.3596310734468891e-32 -1 2.0000000000000009
1.2217304763960264
4 0 0 0 -6.9829626776862667e-15 0 -1 1.2246467991473527e-16 1 -8.5516628917939137e-31 1 -1.2246467991473527e-16 -6.9829626776862667e-15 1.5000000000000007
3 0.86832619018145685 -1.0633928894215372e-16 -6.0634893780946212e-15 -1 1.2246467991473527e-16 6.9829626776862667e-15 1.2246467991473527e-16 1 -8.6876259991386026e-31 -6.9829626776862667e-15 -1.3596310734468891e-32 -1 2.0000000000000009
1.2217304763960264
4 0 0 0 -6.9829626776862667e-15 0 -1 1.2246467991473527e-16 1 -8.5516628917939137e-31 1 -1.2246467991473527e-16 -6.9829626776862667e-15 1.5000000000000007
1 0.86832619018145707 2.0000000000000009 -6.063489378094622e-15 -1 1.2246467991473527e-16 6.9829626776862667e-15 1.2246467991473527e-16 1 -8.5516628917939137e-31 -6.9829626776862667e-15 0 -1 
Triangulations 0

TShapes 25
Ve
1e-07
1.40953893117886 0.513030214988504 -9.84275774916779e-15
0 0

0101101
*
Ve
1e-07
1.40953893117886 -0.513030214988504 -9.90558583023295e-15
0 0

0101101
*
Ed
 1e-07 1 1 0
1  1 0 0 3.14159265358979
2  1 1 0 0 3.14159265358979
0 -1.58240019355252 3.14159265358979 -1.58240019355252
2  2 2 0 0 3.14159265358979
1.22173047639603 0 1.91986217719376 4.18853873767694e-17
0

0101000
+25 0 -24 0 *
Ve
1e-07
0.868326190181457 -2 -6.30841873792409e-15
0 0

0101101
*
Ed
 1e-07 1 1 0
1  2 0 -1.58240019355252 0
2  3 1 0 -1.58240019355252 0
3.14159265358979 -1.58240019355252 3.14159265358979 0
2  4 3 0 -1.58240019355252 0
3.14159265358979 -1.58240019355252 3.14159265358979 0
4 CN 1 0 3 0
0

0101000
+24 0 -22 0 *
Ve
1e-07
0.868326190181457 2 -6.06348937809462e-15
0 0

0101101
*
Ed
 1e-07 1 1 0
1  3 0 0 3.14159265358979
2  5 1 0 0 3.14159265358979
0 0 3.14159265358979 0
0

0101000
+20 0 -22 0 *
Ed
 1e-07 1 1 0
1  4 0 -1.58240019355252 0
2  6 1 0 -1.58240019355252 0
0 -1.58240019355252 0 2.27373675443232e-16
2  7 3 0 -1.58240019355252 0
6.28318530717959 -1.58240019355252 6.28318530717959 2.27373675443232e-16
4 CN 1 0 3 0
0

0101000
+25 0 -20 0 *
Wi

0101100
+23 0 +21 0 -19 0 -18 0 *
Fa
0  1e-07 1 0

0111000
+17 0 *
Ve
1e-07
1.5 -9.18485099360514e-17 -1.04744440165294e-14
0 0

0101101
*
Ed
 1e-07 1 1 0
1  5 0 0 0.349065850398866
2  8 2 0 0 0.349065850398866
1.5707963267949 0 1.22173047639603 0
2  9 4 0 0 0.349065850398866
1.5707963267949 0 1.22173047639603 0
4 CN 2 0 4 0
0

0101000
+15 0 -25 0 *
Ed
 1e-07 1 1 0
1  6 0 3.14159265358979 3.49065850398866
2  10 2 0 3.14159265358979 3.49065850398866
1.5707963267949 0 1.91986217719376 4.18853873767694e-17
2  11 4 0 3.14159265358979 3.49065850398866
1.5707963267949 0 1.91986217719376 4.18853873767694e-17
4 CN 2 0 4 0
0

0101000
+15 0 -24 0 *
Wi

0101100
-14 0 +13 0 -23 0 *
Fa
0  1e-07 2 0

0111000
+12 0 *
Ed
 1e-07 1 1 0
1  7 0 3.14159265358979 6.28318530717959
2  12 4 0 3.14159265358979 6.28318530717959
1.91986217719376 4.18853873767694e-17 1.22173047639603 -8.37707747535399e-17
2  13 3 0 3.14159265358979 6.28318530717959
3.14159265358979 -1.58240019355252 6.28318530717959 -1.58240019355252
0

0101000
+24 0 -25 0 *
Wi

0101100
-13 0 +14 0 -10 0 *
Fa
0  1e-07 4 0

0111000
+9 0 *
Ed
 1e-07 1 1 0
1  8 0 3.14159265358979 6.28318530717959
2  14 3 0 3.14159265358979 6.28318530717959
3.14159265358979 0 6.28318530717959 0
0

0101000
+22 0 -20 0 *
Wi

0101100
+19 0 +7 0 *
Fa
0  1e-07 5 0

0111000
+6 0 *
Wi

0101100
-21 0 +10 0 +18 0 -7 0 *
Fa
0  1e-07 3 0

0111000
+4 0 *
Sh

0101100
+16 0 +11 0 +8 0 +5 0 +3 0 *
So

1100000
+2 0 *

+1 0 
##EGADS HEADER FILE-REV 1 ##
0
  1  1  5  5  8  5  10
3 12 5
.lengthUnits
#metre
3 4 15
Name
#Body-Move/Copy1
2 9 3
ColorFace
 7.921568751335e-01  8.196078538895e-01  9.333333373070e-01 
1 19 1
__@@numbodies@1@1__
1
1 5 1
_body
1
1 5 1
_brch
1
3 5 5
_name
#blunt
3 7 69
capsAIM
#fun3dAIM;su2AIM;egadsTessAIM;aflr4AIM;pointwiseAIM;tetgenAIM;aflr3AIM
3 8 5
capsMesh
#blunt
2 14 1
capsMeshLength
 2.500000000000e-01
    1 0 1
3 4 4
Name
#NONE
    2 0 8
3 4 4
Name
#NONE
1 5 2
_body
1 1 
1 5 2
_brch
1 1 
1 6 1
_nedge
4
1 5 1
_hist
1
1 7 3
_faceID
1 1 1 
1 9 2
__trace__
1 1 
3 9 5
capsGroup
#blunt
    2 1 8
3 4 4
Name
#NONE
1 5 2
_body
1 2 
1 5 2
_brch
1 2 
1 6 1
_nedge
3
1 5 1
_hist
1
1 7 3
_faceID
1 2 1 
1 9 2
__trace__
1 2 
3 9 5
capsGroup
#blunt
    2 2 8
3 4 4
Name
#NONE
1 5 2
_body
1 3 
1 5 2
_brch
1 3 
1 6 1
_nedge
3
1 5 1
_hist
1
1 7 3
_faceID
1 3 1 
1 9 2
__trace__
1 3 
3 9 5
capsGroup
#blunt
    2 3 8
3 4 4
Name
#NONE
1 5 2
_body
1 4 
1 5 2
_brch
1 4 
1 6 1
_nedge
2
1 5 1
_hist
1
1 7 3
_faceID
1 4 1 
1 9 2
__trace__
1 4 
3 9 5
capsGroup
#blunt
    2 4 8
3 4 4
Name
#NONE
1 5 2
_body
1 5 
1 5 2
_brch
1 5 
1 6 1
_nedge
4
1 5 1
_hist
1
1 7 3
_faceID
1 5 1 
1 9 2
__trace__
1 5 
3 9 5
capsGroup
#blunt
    3 0 1
3 4 4
Name
#NONE
    3 1 1
3 4 4
Name
#NONE
    3 2 1
3 4 4
Name
#NONE
    3 3 1
3 4 4
Name
#NONE
    3 4 1
3 4 4
Name
#NONE
    4 0 5
3 4 4
Name
#NONE
1 5 2
_body
1 10002 
1 7 5
_edgeID
1 1 1 2 1 
1 6 1
_nface
2
1 9 2
__trace__
1 1 
    4 1 5
3 4 4
Name
#NONE
1 5 2
_body
1 10005 
1 7 5
_edgeID
1 1 1 5 1 
1 6 1
_nface
2
1 9 2
__trace__
1 2 
    4 2 5
3 4 4
Name
#NONE
1 5 2
_body
1 40001 
1 7 5
_edgeID
1 1 1 4 1 
1 6 1
_nface
2
1 9 2
__trace__
1 3 
    4 3 5
3 4 4
Name
#NONE
1 5 2
_body
1 50001 
1 7 5
_edgeID
1 1 1 5 2 
1 6 1
_nface
2
1 9 2
__trace__
1 4 
    4 4 5
3 4 4
Name
#NONE
1 5 2
_body
1 30002 
1 7 5
_edgeID
1 2 1 3 2 
1 6 1
_nface
2
1 9 2
__trace__
1 5 
    4 5 5
3 4 4
Name
#NONE
1 5 2
_body
1 20003 
1 7 5
_edgeID
1 2 1 3 1 
1 6 1
_nface
2
1 9 2
__trace__
1 6 
    4 6 5
3 4 4
Name
#NONE
1 5 2
_body
1 50003 
1 7 5
_edgeID
1 3 1 5 1 
1 6 1
_nface
2
1 9 2
__trace__
1 7 
    4 7 5
3 4 4
Name
#NONE
1 5 2
_body
1 40005 
1 7 5
_edgeID
1 4 1 5 1 
1 6 1
_nface
2
1 9 2
__trace__
1 8 
    5 0 4
3 4 4
Name
#NONE
1 7 1
_nodeID
1
1 6 1
_nedge
4
1 9 2
__trace__
1 1 
    5 1 4
3 4 4
Name
#NONE
1 7 1
_nodeID
2
1 6 1
_nedge
4
1 9 2
__trace__
1 2 
    5 2 4
3 4 4
Name
#NONE
1 7 1
_nodeID
3
1 6 1
_nedge
3
1 9 2
__trace__
1 3 
    5 3 4
3 4 4
Name
#NONE
1 7 1
_nodeID
4
1 6 1
_nedge
3
1 9 2
__trace__
1 4 
    5 4 4
3 4 4
Name
#NONE
1 7 1
_nodeID
5
1 6 1
_nedge
2
1 9 2
__trace__
1 5 
    0 0 0
