DBRep_DrawableShape

CASCADE Topology V2, (c) Matra-Datavision
Locations 0
Curve2ds 8
1 0 1.5707963267948966 1 0 
1 3.1415926535897931 0 0 1 
1 3.1415926535897931 0 0 1 
1 0 -1.5707963267948966 1 0 
1 6.2831853071795862 -6.2831853071795862 0 1 
1 0 -6.2831853071795862 0 1 
1 0 1.5707963267948966 1 0 
1 0 -1.5707963267948966 1 0 
Curves 2
7 0 0  9 10 2  0 0 -50.000000000000007  -17.453292519943151 2.1374118819130565e-15 -49.999999999999837  -34.906766166607397 4.2748459454521754e-15 -43.146126670737338  -49.282855589207472 6.0354091350162665e-15 -29.438185942649088  -57.512031521238043 7.0431925314947481e-15 -10.487830528373065  -57.512031521236509 7.0431925314942819e-15 10.487830528372678  -49.282855589208815 6.0354091350166396e-15 29.438185942649898  -34.906766166606502 4.2748459454519577e-15 43.14612667073677  -17.453292519943432 2.1374118819131208e-15 49.99999999999995  0 0 50 
 -1.5707963267948966 10 1.5707963267948966 10
2 0 0 0 -2.4492935982947064e-16 -1 0 1 -2.4492935982947064e-16 0 0 0 1 50
Polygon3D 0
PolygonOnTriangulations 0
Surfaces 2
10 3.1415926535897931 6.2831853071795862 -1.5707963267948966 1.5707963267948966
4 0 0 0 0 0 1 1 0 -0 -0 1 0 50
10 0 3.1415926535897931 -1.5707963267948966 1.5707963267948966
4 0 0 0 0 0 1 1 0 -0 -0 1 0 50
Triangulations 0

TShapes 14
Ve
1e-07
3.06161699786838e-15 -7.49879891330929e-31 50
0 0

0101101
*
Ed
 1e-07 1 1 1
2  1 1 0 3.14159265358979 6.28318530717959
3.14159265358979 1.5707963267949 6.28318530717959 1.5707963267949
0

0101000
-14 0 +14 0 *
Ve
1e-07
3.06161699786838e-15 -7.49879891330929e-31 -50
0 0

0101101
*
Ed
 1e-05 1 1 0
2  2 1 0 -1.5707963267949 1.5707963267949
3.14159265358979 -1.5707963267949 3.14159265358979 1.5707963267949
1  1 0 -1.5707963267949 1.5707963267949
2  3 2 0 -1.5707963267949 1.5707963267949
3.14159265358979 -1.5707963267949 3.14159265358979 1.5707963267949
0

0101000
-14 0 +12 0 *
Ed
 1e-07 1 1 1
2  4 1 0 3.14159265358979 6.28318530717959
3.14159265358979 -1.5707963267949 6.28318530717959 -1.5707963267949
0

0101000
+12 0 -12 0 *
Ed
 1e-07 1 1 0
1  2 0 4.71238898038469 7.85398163397448
2  5 1 0 4.71238898038469 7.85398163397448
6.28318530717959 -1.5707963267949 6.28318530717959 1.5707963267949
2  6 2 0 4.71238898038469 7.85398163397448
0 -1.5707963267949 0 1.5707963267949
0

0101000
+12 0 -14 0 *
Wi

0101100
-13 0 -11 0 +10 0 +9 0 *
Fa
0  1e-07 1 0

0101000
+8 0 *
Ed
 1e-07 1 1 1
2  7 2 0 0 3.14159265358979
0 1.5707963267949 3.14159265358979 1.5707963267949
0

0101000
-14 0 +14 0 *
Ed
 1e-07 1 1 1
2  8 2 0 0 3.14159265358979
0 -1.5707963267949 3.14159265358979 -1.5707963267949
0

0101000
+12 0 -12 0 *
Wi

0101100
-6 0 -9 0 +5 0 +11 0 *
Fa
0  1e-07 2 0

0101000
+4 0 *
Sh

0101100
+7 0 +3 0 *
So

1100000
+2 0 *

+1 0 
##EGADS HEADER FILE-REV 1 ##
0
  1  1  2  2  6  2  8
3 5 8
_name
#Farfield
3 7 69
capsAIM
#fun3dAIM;su2AIM;egadsTessAIM;aflr4AIM;pointwiseAIM;tetgenAIM;aflr3AIM
3 8 8
capsMesh
#Farfield
3 8 16
AFLR_GBC
#FARFIELD_UG3_GBC
2 14 1
capsMeshLength
 2.500000000000e-01
2 7 3
.tParam
 1.000000000000e+00  1.000000000000e+00  1.000000000000e+00 
1 5 1
_body
2
1 5 1
_brch
4
    2 0 14
1 5 2
_body
2 1 
1 5 2
_brch
4 1 
3 5 8
_name
#Farfield
3 7 69
capsAIM
#fun3dAIM;su2AIM;egadsTessAIM;aflr4AIM;pointwiseAIM;tetgenAIM;aflr3AIM
3 8 8
capsMesh
#Farfield
3 8 16
AFLR_GBC
#FARFIELD_UG3_GBC
2 14 1
capsMeshLength
 2.500000000000e-01
2 7 3
.tParam
 1.000000000000e+00  1.000000000000e+00  1.000000000000e+00 
1 6 1
_nedge
4
1 5 1
_hist
2
1 7 3
_faceID
2 1 1 
1 9 2
__trace__
2 1 
3 9 8
capsGroup
#Farfield
2 18 1
AFLR4_Scale_Factor
 1.000000000000e+00
    2 1 14
1 5 2
_body
2 2 
1 5 2
_brch
4 2 
3 5 8
_name
#Farfield
3 7 69
capsAIM
#fun3dAIM;su2AIM;egadsTessAIM;aflr4AIM;pointwiseAIM;tetgenAIM;aflr3AIM
3 8 8
capsMesh
#Farfield
3 8 16
AFLR_GBC
#FARFIELD_UG3_GBC
2 14 1
capsMeshLength
 2.500000000000e-01
2 7 3
.tParam
 1.000000000000e+00  1.000000000000e+00  1.000000000000e+00 
1 6 1
_nedge
4
1 5 1
_hist
2
1 7 3
_faceID
2 2 1 
1 9 2
__trace__
2 2 
3 9 8
capsGroup
#Farfield
2 18 1
AFLR4_Scale_Factor
 1.000000000000e+00
    4 0 1
1 7 5
_edgeID
-99999 -99999 2 1 1 
    4 1 4
1 5 2
_body
2 20001 
1 7 5
_edgeID
2 1 2 2 1 
1 6 1
_nface
2
1 9 2
__trace__
2 2 
    4 2 1
1 7 5
_edgeID
-99999 -99999 2 1 1 
    4 3 4
1 5 2
_body
2 10002 
1 7 5
_edgeID
2 1 2 2 2 
1 6 1
_nface
2
1 9 2
__trace__
2 4 
    4 4 1
1 7 5
_edgeID
-99999 -99999 2 2 1 
    4 5 1
1 7 5
_edgeID
-99999 -99999 2 2 1 
    5 0 3
1 7 1
_nodeID
1
1 6 1
_nedge
4
1 9 2
__trace__
2 1 
    5 1 3
1 7 1
_nodeID
2
1 6 1
_nedge
4
1 9 2
__trace__
2 2 
    0 0 0
